# xmcd
#
# Track frame offsets:
#	150
#	18774
#	42916
#	58345
#	84999
#	108697
#	121236
#	128871
#	180931
#	210305
#	237521
#
# Disc length: 3401 seconds
#
# Revision: 0
# Processed by: cddbd v1.5.1PL2 Copyright (c) Steve Scherf et al.
# Submitted via: EasyCDDAExtractor 8.0.2.1
#
DISCID=8c0d470b
DTITLE=Saxon - Zeche Bochum 02-10-05 Disc 2
DYEAR=2005
DGENRE=Hard Rock
TTITLE0=To Hell And Back Again
TTITLE1=Redline
TTITLE2=Stand Up And Be Counted
TTITLE3=Denim and Leather
TTITLE4=747 (Strangers In The Night)
TTITLE5=And The Bands Played On
TTITLE6=Guitar Solo
TTITLE7=Wheels Of Steel
TTITLE8=Crusader
TTITLE9=Princes Of The Night
TTITLE10=Heavy Metal Thunder
EXTD=
EXTT0=
EXTT1=
EXTT2=
EXTT3=
EXTT4=
EXTT5=
EXTT6=
EXTT7=
EXTT8=
EXTT9=
EXTT10=
PLAYORDER=
